<svg id="Logo_Claim" data-name="Logo+Claim" xmlns="http://www.w3.org/2000/svg" viewBox="0 0 727.4 181.28"><title>OPENVOTELogo+Claim</title><g id="Text"><path d="M207.47,62.47a31.42,31.42,0,0,1,12,12.25,37.25,37.25,0,0,1,4.43,18.44,37.21,37.21,0,0,1-4.43,18.43,31.36,31.36,0,0,1-12,12.25,33.33,33.33,0,0,1-16.82,4.32q-11.86,0-18.87-7.13v30.25H148v-92h22.62V66q6.63-7.87,20-7.87A33.32,33.32,0,0,1,207.47,62.47ZM195.9,105q4-4.32,4-11.81t-4-11.82a14.34,14.34,0,0,0-20.5,0q-4,4.32-4,11.82t4,11.81a14.34,14.34,0,0,0,20.5,0Z" style="fill:#4b7bec"/><path d="M303.78,99.16H254.53a13.81,13.81,0,0,0,5.81,8.06A19.46,19.46,0,0,0,271.15,110a23.33,23.33,0,0,0,8.44-1.37,25,25,0,0,0,7.19-4.5l12.5,13q-9.88,11-28.88,11a46.07,46.07,0,0,1-20.87-4.5,34.2,34.2,0,0,1-.75-61,42.69,42.69,0,0,1,37.5-.32,31.94,31.94,0,0,1,13.06,12.13q4.82,7.94,4.81,18.81Q304.15,93.54,303.78,99.16Zm-44.94-21a14.12,14.12,0,0,0-4.69,8.5H281.9a14.16,14.16,0,0,0-4.68-8.5,15.06,15.06,0,0,0-18.38,0Z" style="fill:#4b7bec"/><path d="M379.59,66.78q7.7,7.5,7.69,22.63v38.75H363.53V93.28q0-13.87-11.13-13.87a12.7,12.7,0,0,0-9.81,4q-3.69,4-3.69,12v32.75H315.15V60.41h22.63v7.37a26.85,26.85,0,0,1,9.5-6.31,32.1,32.1,0,0,1,12-2.19Q371.9,59.28,379.59,66.78Z" style="fill:#4b7bec"/><path d="M492,30l-37.5,98.16H430.15L392.78,30h26.75l23.75,63.94L467.53,30Z" style="fill:#4b7bec"/><path d="M505.4,123.66A33.51,33.51,0,0,1,486.78,93a33.41,33.41,0,0,1,18.56-30.44,46.11,46.11,0,0,1,39.44,0A33.28,33.28,0,0,1,558.4,75,33.8,33.8,0,0,1,563.28,93a34.15,34.15,0,0,1-4.88,18.13,33.56,33.56,0,0,1-13.62,12.5,45.33,45.33,0,0,1-39.38,0ZM535.28,105c2.66-2.88,4-6.85,4-11.94s-1.34-8.91-4-11.75a14.49,14.49,0,0,0-20.5,0q-4,4.26-4,11.75c0,5.09,1.33,9.06,4,11.94a14.34,14.34,0,0,0,20.5,0Z" style="fill:#4b7bec"/><path d="M621,124.28a24,24,0,0,1-7.32,2.88,40.87,40.87,0,0,1-9.18,1q-13.26,0-20.38-6.5T577,102.28V79.53h-9.88V61.78H577V44.16h23.75V61.78h15.5V79.53h-15.5V102a8,8,0,0,0,1.93,5.69,6.79,6.79,0,0,0,5.19,2.06,12.55,12.55,0,0,0,7.25-2.12Z" style="fill:#4b7bec"/><path d="M697,99.16H647.78a13.77,13.77,0,0,0,5.81,8.06A19.44,19.44,0,0,0,664.4,110a23.37,23.37,0,0,0,8.44-1.37,25.16,25.16,0,0,0,7.19-4.5l12.5,13q-9.88,11-28.88,11a46.07,46.07,0,0,1-20.87-4.5,34.19,34.19,0,0,1-.75-61,42.69,42.69,0,0,1,37.5-.32,31.94,31.94,0,0,1,13.06,12.13q4.81,7.94,4.81,18.81Q697.4,93.54,697,99.16Zm-44.94-21a14.12,14.12,0,0,0-4.69,8.5h27.75a14.12,14.12,0,0,0-4.69-8.5,15,15,0,0,0-18.37,0Z" style="fill:#4b7bec"/></g><path d="M80.64,30a50.65,50.65,0,0,0-17.53,98.16L75.36,92.6h0A10.79,10.79,0,0,1,74.25,92a13.07,13.07,0,1,1,11.66.56h0l12.26,35.56A50.65,50.65,0,0,0,80.64,30Z" style="fill:#4b7bec"/></svg>